<svg xmlns="http://www.w3.org/2000/svg" viewBox="0 0 64 64">
  <defs>
    <linearGradient id="teal" x1="0" y1="0" x2="1" y2="1">
      <stop offset="0" stop-color="#14B8A6"/>
      <stop offset="1" stop-color="#0F766E"/>
    </linearGradient>
  </defs>
  <rect width="64" height="64" rx="15" fill="url(#teal)"/>
  <path
    d="M12 21.35l-1.45-1.32C5.4 15.36 2 12.28 2 8.5 2 5.42 4.42 3 7.5 3c1.74 0 3.41.81 4.5 2.09C13.09 3.81 14.76 3 16.5 3 19.58 3 22 5.42 22 8.5c0 3.78-3.4 6.86-8.55 11.54L12 21.35z"
    fill="none"
    stroke="#fff"
    stroke-width="3"
    stroke-linecap="round"
    stroke-linejoin="round"
    transform="translate(8 8) scale(2)"
  />
  <path
    d="M16 32 H29 L31.5 32 L33 36.5 L35 25.5 L36.5 32 H48"
    fill="none"
    stroke="#99F6E4"
    stroke-width="3"
    stroke-linecap="round"
    stroke-linejoin="round"
  />
</svg>